<mxfile host="app.diagrams.net" modified="2024-06-28T08:50:01.482Z" agent="Mozilla/5.0 (Windows NT 10.0; Win64; x64) AppleWebKit/537.36 (KHTML, like Gecko) Chrome/128.0.0.0 Safari/537.36 Edg/128.0.0.0" version="24.6.4" etag="kGYVR13Um0EQJpwd6_9M" type="github">
  <diagram name="第 1 页" id="O2fTqEm1Zdb5wUk4z8m-">
    <mxGraphModel>
      <root>
        <mxCell id="0" />
        <mxCell id="1" parent="0" />
      </root>
    </mxGraphModel>
  </diagram>
</mxfile>
